<?xml version="1.0"?>
<svg xmlns="http://www.w3.org/2000/svg" id="Layer_1" data-name="Layer 1" viewBox="0 0 512 512" width="512" height="512"><title>User</title><path d="M414.66,431.39v51.6H97.34v-51.6a50.832,50.832,0,0,1,1.23-11.53c.16-.68.33-1.35.52-2.03,4.77-17.38,18.39-30.95,35.53-36.51l75.56-24.5a96.331,96.331,0,0,0,91.64,0l75.56,24.5c17.14,5.56,30.76,19.13,35.53,36.51.19.68.36,1.35.52,2.03A50.832,50.832,0,0,1,414.66,431.39Z" style="fill:#e48e66"/><path d="M301.71,315.35A95.753,95.753,0,0,1,161.89,248.9l-5.32-18.31v-.15A25.84,25.84,0,0,1,135.22,205a25.53,25.53,0,0,1,.74-6.16,19.4,19.4,0,0,1,17.3-14.8v.6a13.6,13.6,0,0,0,6.98,1.93,13.773,13.773,0,0,0,13.77-13.16l1.7-37.32a308.415,308.415,0,0,0,36.37-.93v.01c58.89,52.48,146.7,49.1,146.7,49.1v-.23a19.429,19.429,0,0,1,17.26,14.8,25.861,25.861,0,0,1-5.39,22.86,25.789,25.789,0,0,1-15.22,8.74v.15l-5.32,18.31A95.679,95.679,0,0,1,301.71,315.35Z" style="fill:#f7caa5"/><path d="M358.78,184.04v.23s-87.81,3.38-146.7-49.1v-.01a304.641,304.641,0,0,0,55.19-9.23c.65.82,29.68,37.32,91.51,41.3Z" style="fill:#494f4f"/><path d="M267.27,125.93a304.641,304.641,0,0,1-55.19,9.23,308.415,308.415,0,0,1-36.37.93l-1.7,37.32a13.773,13.773,0,0,1-13.77,13.16,13.6,13.6,0,0,1-6.98-1.93V131.77a102.76,102.76,0,1,1,205.52,0v35.46C296.95,163.25,267.92,126.75,267.27,125.93Z" style="fill:#5f6768"/><path d="M301.71,356.78l.11.04a96.331,96.331,0,0,1-91.64,0l.11-.04V315.35a95.788,95.788,0,0,0,91.42,0Z" style="fill:#edb288"/></svg>
